<?xml version="1.0" ?><!DOCTYPE svg  PUBLIC '-//W3C//DTD SVG 1.1//EN'  'http://www.w3.org/Graphics/SVG/1.1/DTD/svg11.dtd'><svg height="128px" id="Layer_1" style="enable-background:new 0 0 128 128;" version="1.1" viewBox="0 0 128 128" width="128px" xml:space="preserve" xmlns="http://www.w3.org/2000/svg" xmlns:xlink="http://www.w3.org/1999/xlink"><style type="text/css">
<![CDATA[
	.st0{fill-rule:evenodd;clip-rule:evenodd;}
]]>
</style><path d="M77.349,28.008c2.471,0,7.685,0,12.513,0c0-2.542,0-11.32,0-19.428c-6.445,0-13.778,0-17.013,0  c-24.101,0-23.531,18.678-23.531,21.468c0,2.792,0,15.261,0,15.261H38.137V63.97h11.181v55.449h22.966V63.97h15.411  c0,0,1.443-8.949,2.143-18.731c-2.007,0-17.467,0-17.467,0s0-10.857,0-12.76C72.37,30.573,74.873,28.008,77.349,28.008z"/></svg>