<?xml version="1.0" ?><!DOCTYPE svg  PUBLIC '-//W3C//DTD SVG 1.1//EN'  'http://www.w3.org/Graphics/SVG/1.1/DTD/svg11.dtd'><svg enable-background="new 0 0 283.44 283.44" height="283.44px" version="1.1" viewBox="0 0 283.44 283.44" width="283.44px" xml:space="preserve" xmlns="http://www.w3.org/2000/svg" xmlns:xlink="http://www.w3.org/1999/xlink"><g id="facebook_xA0_Image_1_"><g><path d="M148.461,143.076c-5.146,0-10.37-0.004-15.594,0.001c-7.923,0.008-8.396-0.228-8.738-8    c-0.312-7.104-0.134-14.23-0.143-21.346c-0.001-0.381,0.256-0.763,0.338-0.99c7.749-1.225,15.306-0.491,22.696-0.456    c0.726-10.196,1.418-20.36,6.015-29.615c5.946-11.971,16.741-17.233,29.117-20.053c10.848-2.472,21.757-1.747,32.767-0.647    c1.498,1.187,1.466,3.052,1.868,4.935c5.8,0.932,4.151,5.293,3.63,8.841c-0.819,5.584-0.99,11.196-1.209,16.804    c-0.144,3.682-1.046,5.656-5.448,5.503c-3.979-0.139-8.06-0.155-12.081,1.02c-6.056,1.769-8.31,4.525-7.907,11.056    c3.963,0.512,7.946,0.671,11.981,0.467c2.487-0.126,5.024,0.108,7.495,0.477c2.056,0.307,1.898,2.152,1.832,3.958    c7.458-1.033,5.466,4.865,5.815,8.382c0.595,5.978,0.673,12.062,0.339,18.066c-0.499,8.967-0.489,8.559-8.637,8.036    c-2.781-0.178-5.567-0.45-8.348-0.42c-2.741,0.029-5.478,0.386-8.4,0.613c-0.467,4.405-1.191,8.807-1.359,13.23    c-0.753,19.833-3.408,39.552-3.507,59.431c-0.011,2.251-1.725,4.52-2.794,6.709c-0.151,0.309-1.132,0.295-1.728,0.294    c-11.036-0.025-22.072-0.067-33.108-0.121c-0.827-0.004-1.653-0.128-2.625-0.208c-1.695-1.375-1.112-3.556-1.259-5.449    c-1.092-14.012,0.209-28.027,0.081-42.041c-0.071-7.789,0.103-15.615-0.616-23.351    C148.459,153.076,148.945,148.012,148.461,143.076z M212.03,65.716c-5.383,0.014-10.768-1.305-16.395-0.481    c-3.808,0.557-7.776,0.344-11.579,1.272c-7.012,1.711-14.192,3.108-19.709,8.326c-10.779,10.195-12.615,23.607-13.292,37.4    c-0.093,1.894,0.129,3.804-1.83,3.217c-7.823,0-14.721,0-21.218,0c0,8.25,0,16.316,0,24.475c8.527,0,16.529,0,25.078,0    c0,28.506,0,56.752,0,85.272c11.286-0.656,21.979,0.156,32.712,0.765c1.832-28.421-1.032-57.04,0.193-85.809    c9.227,0,17.716,0,26.445,0c-0.422-8.495-0.851-17.112-1.277-25.688c-1.493-0.153-2.907-0.585-4.224-0.384    c-5.852,0.895-11.723,0.147-17.577,0.405c-1.712,0.076-2.523-0.886-2.578-2.444c-0.096-2.692-0.142-5.39-0.064-8.082    c0.168-5.816,6.18-11.799,11.558-12.08c4.513-0.236,8.997-1.023,13.758-1.597C212.03,82.136,212.03,74.036,212.03,65.716z"/><path d="M112.33,162.701c-8.393,2.162-16.378,4.204-24.355,6.279c-7.032,1.829-13.338,5.262-19.523,8.945    c-0.838,0.499-1.728,0.809-2.342-0.093c-0.869-1.277,0.271-2.077,1.097-2.634c6.695-4.518,13.841-8.045,21.713-10.101    C96.461,163.126,104.007,161.541,112.33,162.701z"/><path d="M125.732,90.121c-3.938-1.342-6.531-3.783-9.456-5.652c-9.965-6.367-18.992-13.921-27.632-21.96    c-0.471-0.439-0.843-0.921-0.457-1.563c0.37-0.615,1.03-0.914,1.65-0.585c1.189,0.632,2.396,1.297,3.423,2.154    c10.423,8.693,20.813,17.426,31.204,26.157C124.807,88.96,125.063,89.35,125.732,90.121z"/><path d="M105.8,130.679c-8.011,0-16.029-0.197-24.031,0.071c-5.149,0.172-10.247,1.111-14.746,3.993    c-0.703,0.451-1.492,0.445-2.022-0.317c-0.575-0.826-0.036-1.465,0.551-1.968c4.041-3.459,9.062-4.278,14.054-4.809    c8.27-0.879,16.575-1.429,24.639,1.493c0.547,0.198,1.088,0.416,1.631,0.625C105.85,130.071,105.825,130.375,105.8,130.679z"/><path d="M109.931,192.778c-5.174,4.294-11.452,6.871-16.366,11.49c-3.662,3.442-6.777,7.196-9.117,11.622    c-0.374,0.707-0.699,1.725-1.83,1.197c-1.076-0.502-0.919-1.448-0.624-2.387c2.593-8.261,8.746-13.461,15.64-17.93    C101.312,194.385,105.483,193.172,109.931,192.778z"/><path d="M106.406,106.412c-7.941,2.414-39.332-13.384-39.739-19.862c1.561-0.846,2.541,0.445,3.634,1.102    c6.772,4.07,12.728,9.474,20.026,12.654C95.494,102.557,100.869,104.33,106.406,106.412z"/><path d="M132.925,202.731c-0.411,2.574-2.075,4.157-3.393,5.89c-3.472,4.564-5.96,9.851-10.158,13.875    c-1.042,0.999-2.307,1.991-3.631,0.64c-1.305-1.332,0.221-2.122,0.916-3.068c3.045-4.14,6.03-8.325,9.078-12.463    C127.504,205.204,129.813,203.562,132.925,202.731z"/><path d="M141.02,70.243c-6.23-4.087-10.817-8.966-14.881-14.375c-0.472-0.628-0.266-1.423,0.393-1.924    c0.717-0.545,1.64-0.624,2.19,0.051c3.852,4.723,8.389,8.887,11.59,14.139C140.585,68.581,140.662,69.149,141.02,70.243z"/><path d="M225.384,188.894c-3.127,3.403-11.231,3.509-14.175,0.401c-0.824-0.869-1.123-1.87-0.109-2.711    c0.995-0.826,2.01-0.781,2.835,0.444c0.731,1.085,1.939,1.135,3.111,1.154C219.776,188.226,222.532,188.018,225.384,188.894z"/><path d="M213.993,225.206c-2.572,0.736-4.391-0.225-6.132-1.12c-2.331-1.199-4.55-2.618-6.807-3.959    c-0.708-0.421-1.162-1.025-0.875-1.892c0.231-0.698,0.888-1.109,1.511-0.906C206.358,218.85,210.182,221.685,213.993,225.206z"/><path d="M230.222,165.48c-2.425,1.45-4.844,0.9-7.041-0.044c-1.662-0.714-5.114-0.6-4.255-3.196    c0.885-2.674,3.434-0.403,5.151,0.089C226.223,162.945,228.812,162.82,230.222,165.48z"/><path d="M234.716,100.007c-0.231,2.001-6.528,6.924-8.354,6.553c-0.952-0.193-1.525-0.808-1.149-1.823    C225.861,102.985,232.801,99.529,234.716,100.007z"/><path d="M168.067,59.734c-2.496-1.016-3.738-3.193-5.055-5.238c-0.577-0.896-0.702-1.953,0.244-2.793    C166.028,52.004,169.482,57.392,168.067,59.734z"/><path d="M195.994,49.884c-1.296,1.62,0.109,4.967-3.084,5.878c-0.855,0.244-1.658-0.765-1.374-1.663    c0.722-2.287,0.159-5.389,3.308-6.28C195.826,47.542,195.94,48.709,195.994,49.884z"/></g></g><g id="border"><g><path d="M36.798,172.992C36.783,173.311,36.81,173.469,36.798,172.992L36.798,172.992z" fill="#1D1D1B"/><path d="M169.632,35.492c0.097-0.001,0.146-0.001,0.241-0.002c0.176-0.08,0.34-0.149,0.498-0.202L169.632,35.492z" fill="#1D1D1B"/><path d="M209.65,36.187c0.099,0.014,0.166,0.023,0.258,0.035C209.892,36.173,209.948,36.128,209.65,36.187z" fill="#1D1D1B"/><path d="M77.996,36.276c-0.369,0.013-0.572,0.041-0.719,0.074C77.487,36.322,77.704,36.297,77.996,36.276z" fill="#1D1D1B"/><path d="M57.935,240.95c0,0-0.093-0.052-0.162-0.09c0.12,0.091,0.239,0.182,0.365,0.278L57.935,240.95z" fill="#1D1D1B"/><path d="M57.137,240.625c-0.769-0.537,0.279,0.038,0.637,0.235c-0.814-0.644-1.721-1.132-2.59-1.708    C55.088,239.303,56.788,240.308,57.137,240.625z" fill="#1D1D1B"/><path d="M190.382,246.245l-0.397,0.05C190.149,246.282,190.271,246.264,190.382,246.245z" fill="#1D1D1B"/><path d="M81.949,42.302c-0.196,0.01-0.416,0.02-0.598,0.029C81.661,42.335,81.831,42.321,81.949,42.302z" fill="#1D1D1B"/><path d="M169.526,246.122l-0.228,0.196C169.5,246.236,169.546,246.175,169.526,246.122z" fill="#1D1D1B"/><path d="M170.371,35.289l0.288-0.076C170.561,35.23,170.469,35.257,170.371,35.289z" fill="#1D1D1B"/><path d="M241.755,56.611c-0.044,0.044-0.039,0.145-0.019,0.255c0.025,0.042,0.044,0.074,0.056,0.096    L241.755,56.611z" fill="#1D1D1B"/><path d="M228.255,236.638c0.025,0.012,0.065,0.013,0.123,0.004l0.506-0.553    C228.582,236.33,228.378,236.509,228.255,236.638z" fill="#1D1D1B"/><path d="M246.844,107.463c0.023,0.044,0.043,0.164,0.068,0.172c0.066-0.861,0.08-3.133,0.072-6.039l-0.241-0.178    L246.844,107.463z" fill="#1D1D1B"/><path d="M241.235,162.552l0.484-5.37c0.223,17.236-0.262,25.278,0.128,40.03l-0.105-0.817    c-0.056,1.074,0.188,1.914,0.279,5.451c0.023,0.884,0.037,1.937,0.033,3.204c-0.089,1.175-0.107,2.56-0.324,4.16    c-0.464,3.185-1.539,7.332-4.264,12.03l-0.043-0.022c-0.158,0.34-0.215,0.521-0.328,0.778c-0.134,0.246-0.34,0.56-0.784,1.167    c0,0,0.138-0.19,0.344-0.475c0.204-0.287,0.5-0.658,0.716-1.073c0.473-0.814,0.947-1.627,0.947-1.627    c-0.462,1.026-0.748,2.072-1.333,3.074c-0.553,1.016-1.072,2.18-2.022,3.373c-0.43,0.486-0.64,0.601-0.739,0.604    c0,0-0.273,0.374-0.683,0.936c-0.463,0.519-1.079,1.212-1.696,1.904c-0.585,0.725-1.31,1.311-1.81,1.795    c-0.51,0.475-0.85,0.791-0.85,0.791s-0.118,0.081-0.294,0.203c-0.169,0.13-0.424,0.267-0.677,0.404    c-0.501,0.276-1.003,0.552-1.003,0.552c-0.861,0.727-0.954,1.133-1.552,1.654c-0.298,0.262-0.71,0.573-1.385,0.999    c-0.338,0.211-0.739,0.458-1.229,0.73c-0.515,0.218-1.115,0.472-1.822,0.772c1.136-0.293,0.486,0.095-0.361,0.55    c-0.828,0.497-1.932,0.85-1.526,0.839c-0.314,0.054-1.009,0.217-1.566,0.339c-0.43,0.151-0.891,0.375-1.414,0.514    c-0.522,0.144-1.077,0.296-1.649,0.454c-0.574,0.15-1.157,0.346-1.756,0.474c-0.604,0.107-1.209,0.215-1.799,0.32    c-0.591,0.108-1.167,0.213-1.713,0.312c-0.552,0.05-1.072,0.097-1.545,0.14c-0.945,0.093-1.701,0.186-2.131,0.267    c0,0,0.907,0.015,2.329,0.038c1.435,0.103,3.366-0.132,5.449-0.314c1.029-0.185,2.09-0.375,3.132-0.563    c1.036-0.227,2.029-0.554,2.981-0.802c0.964-0.223,1.794-0.601,2.545-0.868c0.75-0.271,1.388-0.502,1.872-0.677    c-4.923,2.234-1.267,0.673-0.225,0.342l0.271-0.258c2.815-1.613,3.038-1.289,4.383-2.234c-0.014-0.019-0.07-0.012-0.123-0.008    l-0.145,0.157c-0.154,0.051-0.101-0.032,0.023-0.161c-0.068-0.027,0.025-0.157,0.748-0.675l-0.118,0.126    c0.518-0.446,1.317-0.938,1.962-1.552c0.667-0.587,1.303-1.147,1.688-1.487l0.182,0.161c0.755-0.968,3.708-3.802,6.163-7.26    c0.578-0.883,1.252-1.726,1.748-2.629c0.503-0.905,0.987-1.777,1.432-2.578c0.787-1.654,1.336-3.074,1.639-3.851    c1.219-3.153,1.689-7.343,1.859-11.521c0.11-6.567,0.361-3.282,0.577-6.575c0.151-4.111-0.281,0.832-0.298-0.817l0.336-4.924    c0.029,2.862,0.175,1.309,0.268,0.785c0.041-4.256,0.484-10.968,0.002-12.278c0.231-5.743,0.424-5.757,0.447-8.219    c-0.088,0.825-0.168,2.462-0.265,2.476c0.213-2.3-0.052-1.099-0.1-0.158c-0.209-3.509,0.878-18.209,0.349-18.947h0.096    c-0.394-0.815-0.776,0.494-0.994-1.956l0.176-1.635l-0.169-2.462c0.128-1.651,0.233-0.839,0.281-0.839    c-0.182-4.011,0.035-9.606,0.088-14.464l-1.074,5.145c0.248-4.098,0.751-11.492,0.406-12.31l0.361-2.462    c0.689-8.217-0.299-5.737-0.092-9.016l0.393-4.127l-0.007,4.107c0.199-4.107,0.328-5.749,0.584-9.024l-0.011-0.036    c-0.016,0.226-0.035,0.372-0.059,0.402l-0.01-0.574c-0.196-0.498-0.33-2.64-0.317-5.533c0.055-4.109-0.234-7.322,0.182-13.883    l-0.402-1.636l0.239-4.926h0.32c0.029,4.826,0.082,13.909,0.119,20.111l0.146,0.11c0-3.678-0.142-7.863-0.11-10.293    c0.064-1.185,0.397-4.217,0.612-2.017l-0.313-2.272c-0.034-6.156,0.042-9.146-0.17-12.592c0.003-0.843-0.176-1.673-0.278-2.569    c-0.145-0.889-0.191-1.856-0.443-2.894c-0.243-1.042-0.511-2.189-0.816-3.494c-0.444-1.261-0.858-2.714-1.504-4.305    c0,0,0.097,0.283,0.178,0.572c0.066,0.294,0.132,0.589,0.132,0.589c-1.137-2.471-2.466-4.813-2.684-5.563    c-0.546-0.871-1.019-1.799-1.629-2.631c-0.607-0.835-1.213-1.669-1.815-2.495c-0.618-0.814-1.323-1.545-1.968-2.308    c-0.331-0.373-0.647-0.757-0.984-1.114c-0.354-0.34-0.704-0.677-1.051-1.01c-2.698-2.761-5.608-4.745-7.839-6.302    c0,0-0.301-0.068-0.602-0.136c-0.31-0.046-0.62-0.092-0.62-0.092c-0.782-0.391-1.705-0.999-2.565-1.498    c-0.86-0.496-1.708-0.752-2.193-0.67c0,0-0.893-0.281-1.786-0.563c-0.44-0.158-0.906-0.23-1.248-0.308    c-0.343-0.073-0.572-0.121-0.572-0.121c-1.156-0.295-2.089-0.544-3.081-0.689c-0.996-0.131-2.023-0.289-3.355-0.598l0,0    c-0.006-0.001-0.015-0.003-0.015-0.003c-0.164-0.035-0.336-0.088-0.505-0.106c-0.001,0.011,0.013,0.022,0.027,0.033    c-2.693-0.226-2.686-0.136-2.772-0.064c-0.043,0.037-0.111,0.071-0.552,0.064c-0.422-0.014-1.194-0.04-2.668-0.09    c-1.847-0.268-2.042,0.478-4.847,0.393l-2.816-0.541c-5.081-0.31-5.951,0.232-13.313,0.234c-3.535-0.193-5.244-0.654-2.902-1.063    c-3.219,0.496-1.465,0.323-5.735,0.561c-0.657-0.204-0.202-0.247,0.742-0.43c-3.793-0.239-2.34,0.184-5.2,0.172    c-0.831,0.384-1.788,0.995-2.718,1.02l1.107,0.12c-3.028,0.205-6.335,0.301-9.857,0.108l0.133-0.193l-3.747,0.098l-0.236-0.247    l-5.35,0.077l0.733,0.067c-1.256,0.033-5.381,0.118-7.739-0.011l0.086-0.137c-6.655-0.428-12.141,0.133-19.934,0.178l1.023-0.28    c-2.655-0.278-0.728,0.431-3.891,0.292l-0.158-0.344c-2.785,0.452-3.601-0.096-5.519-0.267l0.897,0.451l-3.615-0.095    c-3.981-0.149-2.443-0.569-1.861-0.805l-2.71,0.355l-0.53-0.398c-1.98,0.463-1.98-0.074-5.451,0.174    c-0.286-0.15,0.592-0.237-0.588-0.301l-5.723,0.561l3.452-0.249l-0.42,0.581c-3.595,0.441-4.87-0.063-7.438,0.099l1.769-0.173    c-4.191,0.141-4.414-0.106-6.779-0.235c0.733,0.108,1.855,0.269,0.158,0.345c-1.245,0.032-0.675-0.204-1.852-0.269    c-0.141,0.194-0.963,0.342-2.09,0.419c-0.564,0.038-1.204,0.059-1.873,0.059c-0.663-0.006-1.44,0.037-2.157,0.019    c0.033-0.057,0.093-0.113,0.282-0.158c-0.741,0.1-1.116,0.218-2.413,0.193l0.728-0.469c0,0-0.621,0.123-1.232,0.282    c-0.605,0.195-1.21,0.389-1.21,0.389c-0.829,0.066-1.833,0.269-2.603,0.417c-0.763,0.186-1.29,0.352-1.219,0.176l0.9-0.318    c0,0-0.767,0.189-1.918,0.473c-0.575,0.144-1.246,0.312-1.965,0.492c-0.699,0.247-1.445,0.51-2.19,0.773    c-0.737,0.284-1.507,0.493-2.17,0.827c-0.671,0.316-1.298,0.611-1.835,0.863c-0.537,0.254-0.984,0.466-1.297,0.615    c-0.308,0.157-0.473,0.267-0.473,0.267l-0.319-0.209c-0.415,0.546-1.943,1.357-3.217,2.19c-1.239,0.883-2.301,1.662-1.95,1.769    c-0.261,0.15-0.581,0.344-0.917,0.593c-0.321,0.267-0.671,0.573-1.032,0.898c-0.713,0.661-1.517,1.352-2.156,2.039    c-1.255,1.394-2.218,2.419-1.998,1.678c-0.738,0.749-1.297,1.569-1.86,2.33c-0.539,0.778-1.123,1.475-1.544,2.252    c-0.859,1.541-1.752,2.953-2.388,4.56c-0.342,0.79-0.718,1.579-1.057,2.417c-0.299,0.855-0.608,1.74-0.935,2.673    c-0.37,0.919-0.603,1.932-0.894,3.001c-0.292,1.07-0.635,2.2-0.823,3.455c-0.138,0.434-0.28,0.97-0.423,1.588    c-0.15,0.618-0.298,1.318-0.345,2.09c-0.135,1.52-0.302,3.402-0.28,5.07c-0.011,3.466-0.022,7.266-0.031,10.282    c0.237,11.792,0.45,19.412,0.631,31.464c-0.79,7.248,0.272,18.08-0.174,25.88l0.314,2.136c-0.5,5.184,0.112,13.101-0.376,20.375    c0.137,1.783,0.181,2.718,0.192,3.132c0.015-0.33,0.075-0.832,0.274-0.99c-0.14,2.077,0.035,6.279-0.363,5.979l-0.041-0.528    c-0.398-0.305,0.186,6.304-0.159,8.622l0.427-1.271l-0.072,3.935l-0.082-1.053c0.237,4.273,0.33,7.96,0.349,11.338    c-0.006,1.689-0.011,3.3-0.016,4.87c-0.005,0.393-0.009,0.783-0.014,1.17c0.014,0.413,0.028,0.824,0.042,1.233    c0.028,0.819,0.056,1.631,0.084,2.442c-0.002,0.814,0.182,1.609,0.267,2.417c0.114,0.804,0.211,1.616,0.349,2.426    c0.197,0.8,0.395,1.606,0.596,2.424c0.2,0.819,0.404,1.649,0.734,2.457c0.306,0.815,0.618,1.645,0.937,2.495    c0.336,0.842,0.801,1.652,1.221,2.505c0.219,0.422,0.441,0.85,0.667,1.285c0.233,0.429,0.528,0.832,0.798,1.257    c0.566,0.833,1.103,1.72,1.76,2.561c-1.726-1.556,2.201,2.557,1.945,3.041c1.21,1.809,2.562,3.345,4.122,4.477    c1.465,1.244,3.107,2.08,4.56,3.071c0.014-0.021,0.065-0.019,0.249,0.069c0,0,0.077,0.057,0.212,0.158    c0.143,0.089,0.346,0.216,0.591,0.369c0.49,0.305,1.143,0.711,1.797,1.117c0.327,0.202,0.655,0.405,0.962,0.595    c0.323,0.161,0.624,0.312,0.882,0.441c0.518,0.256,0.863,0.427,0.863,0.427c-3.598-1.019,4.225,1.44,0.947,0.471    c3.618,1.721,7.795,3.121,12.315,3.624c4.643,0.464,8.954,0.264,13.479,0.29c9.014-0.035,18.326-0.102,27.081,0.009l-0.768-0.165    c4.441,0.032,9.964-0.169,13.333,0.095c3.372,0.264,7.37-0.42,8.677-0.446c3.693-0.285,7.052,0.281,5.467,0.252    c3.949-0.079,7.662-0.666,13.142-0.414c1.873,0.545,14.95-0.535,15.114,0.079l0.06-0.052c7.018,0.433,13.638-0.303,21.197,0.088    c0,0-0.144,0.045-0.4,0.086l15.382-1.864l-4.381-2.051l-13.333-1.666l-36.133,0.361l-28.839-0.651c0,0-17.546,0.055-35.091,0.11    c-2.193,0.007-4.386,0.014-6.545,0.021c-1.058-0.008-2.199,0.033-3.16-0.017c-0.962-0.045-1.912-0.089-2.846-0.133    c-3.715-0.404-7.127-1.239-9.899-2.37c-0.718-0.218-1.338-0.593-1.96-0.869c-0.616-0.293-1.2-0.571-1.749-0.832    c-1.042-0.628-1.95-1.176-2.698-1.628c-0.731-0.478-1.259-0.922-1.642-1.19c-0.376-0.279-0.577-0.427-0.577-0.427    s-0.247-0.148-0.618-0.369c-0.374-0.22-0.812-0.589-1.282-0.924c-0.466-0.344-0.932-0.689-1.281-0.947    c-0.176-0.13-0.322-0.239-0.424-0.315c-0.094-0.085-0.147-0.134-0.147-0.134c-2.067-2.433-4.042-5.184-5.738-8.251    c-1.598-3.116-2.876-6.522-3.661-10.098l-0.436-2.714c-0.094-0.451-0.121-0.909-0.139-1.369l-0.078-1.376l-0.081-1.375    c-0.016-0.478-0.008-0.994-0.013-1.488c-0.001-0.998-0.002-1.993-0.002-2.984c0.007-3.963,0.057-7.854,0.201-11.569l-0.398-0.308    c-0.024-4.187,0.223-3.903,0.293-4.938c-0.093-19.48-0.188-39.25-0.28-58.53c-0.015-9.64-0.029-19.158-0.043-28.457    c0.021-4.649,0.042-9.244,0.063-13.772c0.009-1.132,0.018-2.26,0.028-3.383l0.016-1.682l0.098-1.539    c0.049-2.053,0.434-4.054,0.816-6.021c0.265-0.734,0.579-1.857,0.957-3.153c0.243-0.631,0.502-1.304,0.769-1.997    c0.13-0.347,0.262-0.7,0.395-1.054c0.148-0.348,0.333-0.681,0.496-1.023c0.335-0.679,0.668-1.353,0.987-2    c0.35-0.63,0.744-1.199,1.077-1.736c0.345-0.53,0.642-1.023,0.935-1.418c0.316-0.38,0.584-0.691,0.793-0.911    c2.85-4.307,6.878-8.081,11.583-10.693c4.727-2.578,10.056-3.994,15.283-4.2l-0.393,0.064c0,0,0.307-0.02,0.768-0.051    c0.476-0.022,1.042-0.094,1.726-0.097c1.342-0.019,2.685-0.038,2.685-0.038c0.228,0.033,0.255,0.08,0.083,0.111    c6.057-0.353,15.6-0.004,23.017,0.14l-0.433,0.043c21.636,0.036,42.498-0.132,63.315-0.239    c10.409-0.027,20.806-0.055,31.283-0.083l3.933,0.006c1.295,0.013,2.681-0.026,3.841,0.072c1.205,0.093,2.426,0.057,3.615,0.309    c1.191,0.213,2.408,0.31,3.568,0.682c4.711,1.153,9.194,3.313,13.07,6.316c3.544,2.864,6.729,6.446,9.168,10.635    c2.442,4.18,4.12,8.968,4.711,14.012c0.115,1.262,0.153,2.539,0.244,3.817c0.009,1.404,0.018,2.814,0.027,4.227    c0.008,2.829,0.016,5.674,0.023,8.527c-0.002,5.707-0.048,11.451-0.183,17.174C240.751,112.143,241.049,158.459,241.235,162.552z" fill="#1D1D1B"/><path d="M234.224,227.037l0.097-0.133C234.184,226.808,234.088,227.043,234.224,227.037z" fill="#1D1D1B"/><path d="M246.356,135.056c-0.001,0.104-0.003,0.204-0.004,0.302l0.237-1.137L246.356,135.056z" fill="#1D1D1B"/><path d="M246.495,196.334c0.053-2.754,0.012-2.881-0.055-2.494C246.429,194.836,246.442,195.707,246.495,196.334z" fill="#1D1D1B"/><path d="M217.745,239.302c-1.266,0.452-0.757,0.371,0.025,0.202c1.289-0.489,2.186-0.829,2.186-0.829    C219.231,238.881,218.49,239.091,217.745,239.302z" fill="#1D1D1B"/><path d="M223.847,239.141l-0.339,0.314C224.254,239.059,224.198,239.031,223.847,239.141z" fill="#1D1D1B"/></g></g></svg>